<svg id="Group_75" data-name="Group 75" xmlns="http://www.w3.org/2000/svg" width="37" height="37" viewBox="0 0 37 37">
  <g id="Group_74" data-name="Group 74">
    <path id="Path_20" data-name="Path 20" d="M18.5,37A18.5,18.5,0,1,0,0,18.5,18.521,18.521,0,0,0,18.5,37Zm0-35.152A16.652,16.652,0,1,1,1.848,18.5,16.67,16.67,0,0,1,18.5,1.848Z" fill="#fff"/>
    <path id="Path_21" data-name="Path 21" d="M176.972,186.765a.929.929,0,0,0,1.313,0l3.591-3.591,3.591,3.591a.926.926,0,1,0,1.313-1.305l-3.606-3.591,3.591-3.591a.923.923,0,1,0-1.305-1.305l-3.591,3.591-3.591-3.591a.923.923,0,0,0-1.305,1.305l3.591,3.591-3.591,3.591A.92.92,0,0,0,176.972,186.765Z" transform="translate(-163.368 -163.368)" fill="#fff"/>
  </g>
</svg>
